# xmcd
#
# Track frame offsets:
#	150
#	13165
#	33600
#	52116
#	67959
#	85970
#	110611
#	134333
#	162296
#	179750
#	200839
#	222158
#	237573
#	251751
#
# Disc length: 3648 seconds
#
# Revision: 0
# Processed by: cddbd v1.5.1PL2 Copyright (c) Steve Scherf et al.
# Submitted via: dBpowerAMP V4.0
#
DISCID=da0e3e0e
DTITLE=Chorale du lycée René Cassin/ Entre Ciel et Terre - Earth songs
DYEAR=2005
DGENRE=Gospel
TTITLE0=01 Tronia trejepine
TTITLE1=02 C'est quand le bonheur
TTITLE2=03 Bow down - O come let us adore him
TTITLE3=04 Out here on my own
TTITLE4=05 Nos mains
TTITLE5=06 Lamb of God
TTITLE6=07 Teach us your way
TTITLE7=08 Earth song
TTITLE8=09 Precious lord
TTITLE9=10 Soon and very soon - Amen
TTITLE10=11 Nkosi sikelel'i Africa
TTITLE11=12 Est-ce Dieu qui te parle ?
TTITLE12=13 Take five
TTITLE13=14 Watermelon man
EXTD=
EXTT0=
EXTT1=
EXTT2=
EXTT3=
EXTT4=
EXTT5=
EXTT6=
EXTT7=
EXTT8=
EXTT9=
EXTT10=
EXTT11=
EXTT12=
EXTT13=
PLAYORDER=
